<mxfile host="app.diagrams.net" modified="2023-07-17T19:16:42.061Z" agent="Mozilla/5.0 (Windows NT 10.0; Win64; x64) AppleWebKit/537.36 (KHTML, like Gecko) Chrome/114.0.0.0 Safari/537.36 Edg/114.0.1823.79" etag="rXUNKy6LPHq2xTAMG218" version="21.6.2" type="github">
  <diagram id="C5RBs43oDa-KdzZeNtuy" name="Page-1">
    <mxGraphModel dx="996" dy="645" grid="1" gridSize="10" guides="1" tooltips="1" connect="1" arrows="1" fold="1" page="1" pageScale="1" pageWidth="827" pageHeight="1169" math="0" shadow="0">
      <root>
        <mxCell id="WIyWlLk6GJQsqaUBKTNV-0" />
        <mxCell id="WIyWlLk6GJQsqaUBKTNV-1" parent="WIyWlLk6GJQsqaUBKTNV-0" />
        <UserObject label="Workflow_Citrix_Catalog_Update" id="nvEJAA1esfdf5cPtqJe0-1">
          <mxCell style="swimlane;whiteSpace=wrap;html=1;" vertex="1" parent="WIyWlLk6GJQsqaUBKTNV-1">
            <mxGeometry width="820" height="1160" as="geometry" />
          </mxCell>
        </UserObject>
        <mxCell id="nvEJAA1esfdf5cPtqJe0-2" value="Seal Script successful?" style="rhombus;whiteSpace=wrap;html=1;shadow=0;fontFamily=Helvetica;fontSize=12;align=center;strokeWidth=1;spacing=6;spacingTop=-4;fillColor=#dae8fc;strokeColor=#6c8ebf;" vertex="1" parent="nvEJAA1esfdf5cPtqJe0-1">
          <mxGeometry x="690" y="520" width="100" height="80" as="geometry" />
        </mxCell>
        <mxCell id="nvEJAA1esfdf5cPtqJe0-3" value="" style="rounded=0;html=1;jettySize=auto;orthogonalLoop=1;fontSize=11;endArrow=block;endFill=0;endSize=8;strokeWidth=1;shadow=0;labelBackgroundColor=none;edgeStyle=orthogonalEdgeStyle;entryX=0.5;entryY=0;entryDx=0;entryDy=0;exitX=0.5;exitY=1;exitDx=0;exitDy=0;" edge="1" parent="nvEJAA1esfdf5cPtqJe0-1" source="nvEJAA1esfdf5cPtqJe0-10" target="nvEJAA1esfdf5cPtqJe0-2">
          <mxGeometry relative="1" as="geometry">
            <mxPoint x="840" y="497.5" as="sourcePoint" />
            <mxPoint x="550" y="317.5" as="targetPoint" />
          </mxGeometry>
        </mxCell>
        <mxCell id="nvEJAA1esfdf5cPtqJe0-7" value="VM Powered off?" style="rhombus;whiteSpace=wrap;html=1;shadow=0;fontFamily=Helvetica;fontSize=12;align=center;strokeWidth=1;spacing=6;spacingTop=-4;fillColor=#dae8fc;strokeColor=#6c8ebf;" vertex="1" parent="nvEJAA1esfdf5cPtqJe0-1">
          <mxGeometry x="690" y="760" width="100" height="80" as="geometry" />
        </mxCell>
        <mxCell id="nvEJAA1esfdf5cPtqJe0-8" value="&lt;p class=&quot;MsoNormal&quot;&gt;Play run to send API to SNOW as unsuccessful&lt;/p&gt;" style="rounded=1;whiteSpace=wrap;html=1;fontSize=12;glass=0;strokeWidth=1;shadow=0;fillColor=#d5e8d4;strokeColor=#82b366;" vertex="1" parent="nvEJAA1esfdf5cPtqJe0-1">
          <mxGeometry x="500" y="432.5" width="120" height="40" as="geometry" />
        </mxCell>
        <mxCell id="nvEJAA1esfdf5cPtqJe0-9" value="&lt;p class=&quot;MsoNormal&quot;&gt;Play to Snapshot VM&lt;/p&gt;" style="rounded=1;whiteSpace=wrap;html=1;fontSize=12;glass=0;strokeWidth=1;shadow=0;fillColor=#d5e8d4;strokeColor=#82b366;" vertex="1" parent="nvEJAA1esfdf5cPtqJe0-1">
          <mxGeometry x="680" y="880" width="120" height="40" as="geometry" />
        </mxCell>
        <mxCell id="nvEJAA1esfdf5cPtqJe0-10" value="&lt;p class=&quot;MsoNormal&quot;&gt;Play to run seal script (pre-snapshot tasks)&lt;/p&gt;" style="rounded=1;whiteSpace=wrap;html=1;fontSize=12;glass=0;strokeWidth=1;shadow=0;fillColor=#d5e8d4;strokeColor=#82b366;" vertex="1" parent="nvEJAA1esfdf5cPtqJe0-1">
          <mxGeometry x="680" y="432.5" width="120" height="40" as="geometry" />
        </mxCell>
        <mxCell id="nvEJAA1esfdf5cPtqJe0-11" value="Snapshot Successful?" style="rhombus;whiteSpace=wrap;html=1;shadow=0;fontFamily=Helvetica;fontSize=12;align=center;strokeWidth=1;spacing=6;spacingTop=-4;fillColor=#dae8fc;strokeColor=#6c8ebf;" vertex="1" parent="nvEJAA1esfdf5cPtqJe0-1">
          <mxGeometry x="690" y="960" width="100" height="80" as="geometry" />
        </mxCell>
        <mxCell id="nvEJAA1esfdf5cPtqJe0-12" value="" style="rounded=0;html=1;jettySize=auto;orthogonalLoop=1;fontSize=11;endArrow=block;endFill=0;endSize=8;strokeWidth=1;shadow=0;labelBackgroundColor=none;edgeStyle=orthogonalEdgeStyle;entryX=0.5;entryY=0;entryDx=0;entryDy=0;exitX=0.5;exitY=1;exitDx=0;exitDy=0;" edge="1" parent="nvEJAA1esfdf5cPtqJe0-1" source="nvEJAA1esfdf5cPtqJe0-9" target="nvEJAA1esfdf5cPtqJe0-11">
          <mxGeometry relative="1" as="geometry">
            <mxPoint x="310" y="340" as="sourcePoint" />
            <mxPoint x="210" y="340" as="targetPoint" />
          </mxGeometry>
        </mxCell>
        <mxCell id="nvEJAA1esfdf5cPtqJe0-13" value="&lt;p class=&quot;MsoNormal&quot;&gt;Play to update Machine Catalog&lt;/p&gt;" style="rounded=1;whiteSpace=wrap;html=1;fontSize=12;glass=0;strokeWidth=1;shadow=0;fillColor=#d5e8d4;strokeColor=#82b366;" vertex="1" parent="nvEJAA1esfdf5cPtqJe0-1">
          <mxGeometry x="680" y="1080" width="120" height="40" as="geometry" />
        </mxCell>
        <mxCell id="nvEJAA1esfdf5cPtqJe0-14" value="" style="rounded=0;html=1;jettySize=auto;orthogonalLoop=1;fontSize=11;endArrow=block;endFill=0;endSize=8;strokeWidth=1;shadow=0;labelBackgroundColor=none;edgeStyle=orthogonalEdgeStyle;entryX=0.5;entryY=0;entryDx=0;entryDy=0;exitX=0.5;exitY=1;exitDx=0;exitDy=0;" edge="1" parent="nvEJAA1esfdf5cPtqJe0-1" source="nvEJAA1esfdf5cPtqJe0-11" target="nvEJAA1esfdf5cPtqJe0-13">
          <mxGeometry relative="1" as="geometry">
            <mxPoint x="250" y="460" as="sourcePoint" />
            <mxPoint x="250" y="500" as="targetPoint" />
          </mxGeometry>
        </mxCell>
        <mxCell id="nvEJAA1esfdf5cPtqJe0-15" value="Yes" style="edgeLabel;html=1;align=center;verticalAlign=middle;resizable=0;points=[];" vertex="1" connectable="0" parent="nvEJAA1esfdf5cPtqJe0-14">
          <mxGeometry y="2" relative="1" as="geometry">
            <mxPoint x="-2" y="-7" as="offset" />
          </mxGeometry>
        </mxCell>
        <mxCell id="nvEJAA1esfdf5cPtqJe0-16" value="Machine Catalog updated successfully?" style="rhombus;whiteSpace=wrap;html=1;shadow=0;fontFamily=Helvetica;fontSize=12;align=center;strokeWidth=1;spacing=6;spacingTop=-4;fillColor=#dae8fc;strokeColor=#6c8ebf;" vertex="1" parent="nvEJAA1esfdf5cPtqJe0-1">
          <mxGeometry x="510" y="1060" width="100" height="80" as="geometry" />
        </mxCell>
        <mxCell id="nvEJAA1esfdf5cPtqJe0-18" value="" style="rounded=0;html=1;jettySize=auto;orthogonalLoop=1;fontSize=11;endArrow=block;endFill=0;endSize=8;strokeWidth=1;shadow=0;labelBackgroundColor=none;edgeStyle=orthogonalEdgeStyle;entryX=1;entryY=0.5;entryDx=0;entryDy=0;exitX=0;exitY=0.5;exitDx=0;exitDy=0;" edge="1" parent="nvEJAA1esfdf5cPtqJe0-1" source="nvEJAA1esfdf5cPtqJe0-13" target="nvEJAA1esfdf5cPtqJe0-16">
          <mxGeometry relative="1" as="geometry">
            <mxPoint x="680" y="1102.5" as="sourcePoint" />
            <mxPoint x="680" y="1080" as="targetPoint" />
          </mxGeometry>
        </mxCell>
        <mxCell id="nvEJAA1esfdf5cPtqJe0-19" value="&lt;p class=&quot;MsoNormal&quot;&gt;Playbook to Run Windows Baseline&lt;/p&gt;" style="rounded=1;whiteSpace=wrap;html=1;fontSize=12;glass=0;strokeWidth=1;shadow=0;fillColor=#d5e8d4;strokeColor=#82b366;" vertex="1" parent="nvEJAA1esfdf5cPtqJe0-1">
          <mxGeometry x="320" y="1037.5" width="120" height="40" as="geometry" />
        </mxCell>
        <mxCell id="nvEJAA1esfdf5cPtqJe0-20" value="Baseline Successful?" style="rhombus;whiteSpace=wrap;html=1;shadow=0;fontFamily=Helvetica;fontSize=12;align=center;strokeWidth=1;spacing=6;spacingTop=-4;fillColor=#dae8fc;strokeColor=#6c8ebf;" vertex="1" parent="nvEJAA1esfdf5cPtqJe0-1">
          <mxGeometry x="180" y="1017.5" width="100" height="80" as="geometry" />
        </mxCell>
        <mxCell id="nvEJAA1esfdf5cPtqJe0-21" value="" style="rounded=0;html=1;jettySize=auto;orthogonalLoop=1;fontSize=11;endArrow=block;endFill=0;endSize=8;strokeWidth=1;shadow=0;labelBackgroundColor=none;edgeStyle=orthogonalEdgeStyle;entryX=1;entryY=0.5;entryDx=0;entryDy=0;exitX=0;exitY=0.5;exitDx=0;exitDy=0;" edge="1" parent="nvEJAA1esfdf5cPtqJe0-1" source="nvEJAA1esfdf5cPtqJe0-16" target="nvEJAA1esfdf5cPtqJe0-19">
          <mxGeometry relative="1" as="geometry">
            <mxPoint x="570" y="1038" as="sourcePoint" />
            <mxPoint x="400" y="447.5" as="targetPoint" />
          </mxGeometry>
        </mxCell>
        <mxCell id="nvEJAA1esfdf5cPtqJe0-22" value="Yes" style="edgeLabel;html=1;align=center;verticalAlign=middle;resizable=0;points=[];" vertex="1" connectable="0" parent="nvEJAA1esfdf5cPtqJe0-21">
          <mxGeometry x="-0.575" relative="1" as="geometry">
            <mxPoint x="-8" as="offset" />
          </mxGeometry>
        </mxCell>
        <mxCell id="nvEJAA1esfdf5cPtqJe0-23" value="" style="rounded=0;html=1;jettySize=auto;orthogonalLoop=1;fontSize=11;endArrow=block;endFill=0;endSize=8;strokeWidth=1;shadow=0;labelBackgroundColor=none;edgeStyle=orthogonalEdgeStyle;entryX=1;entryY=0.5;entryDx=0;entryDy=0;exitX=0;exitY=0.5;exitDx=0;exitDy=0;" edge="1" parent="nvEJAA1esfdf5cPtqJe0-1" source="nvEJAA1esfdf5cPtqJe0-19" target="nvEJAA1esfdf5cPtqJe0-20">
          <mxGeometry relative="1" as="geometry">
            <mxPoint x="-5" y="870" as="sourcePoint" />
            <mxPoint x="279" y="1037.5" as="targetPoint" />
          </mxGeometry>
        </mxCell>
        <mxCell id="nvEJAA1esfdf5cPtqJe0-24" value="Is This a SQL Server?" style="rhombus;whiteSpace=wrap;html=1;shadow=0;fontFamily=Helvetica;fontSize=12;align=center;strokeWidth=1;spacing=6;spacingTop=-4;fillColor=#dae8fc;strokeColor=#6c8ebf;" vertex="1" parent="nvEJAA1esfdf5cPtqJe0-1">
          <mxGeometry x="30" y="1017.5" width="100" height="80" as="geometry" />
        </mxCell>
        <mxCell id="nvEJAA1esfdf5cPtqJe0-25" value="Run SQL Server Workflow" style="ellipse;whiteSpace=wrap;html=1;aspect=fixed;fillColor=#f5f5f5;fontColor=#333333;strokeColor=#666666;" vertex="1" parent="nvEJAA1esfdf5cPtqJe0-1">
          <mxGeometry x="165" y="837.5" width="80" height="80" as="geometry" />
        </mxCell>
        <mxCell id="nvEJAA1esfdf5cPtqJe0-26" value="Is Server in a DMZ?" style="rhombus;whiteSpace=wrap;html=1;shadow=0;fontFamily=Helvetica;fontSize=12;align=center;strokeWidth=1;spacing=6;spacingTop=-4;fillColor=#dae8fc;strokeColor=#6c8ebf;" vertex="1" parent="nvEJAA1esfdf5cPtqJe0-1">
          <mxGeometry x="30" y="837.5" width="100" height="80" as="geometry" />
        </mxCell>
        <mxCell id="nvEJAA1esfdf5cPtqJe0-27" value="Run DMZ Server Workflow" style="ellipse;whiteSpace=wrap;html=1;aspect=fixed;fillColor=#f5f5f5;fontColor=#333333;strokeColor=#666666;" vertex="1" parent="nvEJAA1esfdf5cPtqJe0-1">
          <mxGeometry x="165" y="700" width="80" height="80" as="geometry" />
        </mxCell>
        <mxCell id="nvEJAA1esfdf5cPtqJe0-28" value="" style="rounded=0;html=1;jettySize=auto;orthogonalLoop=1;fontSize=11;endArrow=block;endFill=0;endSize=8;strokeWidth=1;shadow=0;labelBackgroundColor=none;edgeStyle=orthogonalEdgeStyle;entryX=0.5;entryY=1;entryDx=0;entryDy=0;exitX=0.5;exitY=0;exitDx=0;exitDy=0;" edge="1" parent="nvEJAA1esfdf5cPtqJe0-1" source="nvEJAA1esfdf5cPtqJe0-24" target="nvEJAA1esfdf5cPtqJe0-25">
          <mxGeometry relative="1" as="geometry">
            <mxPoint x="-1050" y="585" as="sourcePoint" />
            <mxPoint x="-1050" y="625" as="targetPoint" />
          </mxGeometry>
        </mxCell>
        <mxCell id="nvEJAA1esfdf5cPtqJe0-29" value="Yes" style="edgeLabel;html=1;align=center;verticalAlign=middle;resizable=0;points=[];" vertex="1" connectable="0" parent="nvEJAA1esfdf5cPtqJe0-28">
          <mxGeometry x="-0.0311" relative="1" as="geometry">
            <mxPoint y="1" as="offset" />
          </mxGeometry>
        </mxCell>
        <mxCell id="nvEJAA1esfdf5cPtqJe0-30" value="Additional Windows Features?" style="rhombus;whiteSpace=wrap;html=1;shadow=0;fontFamily=Helvetica;fontSize=12;align=center;strokeWidth=1;spacing=6;spacingTop=-4;fillColor=#dae8fc;strokeColor=#6c8ebf;" vertex="1" parent="nvEJAA1esfdf5cPtqJe0-1">
          <mxGeometry x="30" y="590" width="100" height="80" as="geometry" />
        </mxCell>
        <mxCell id="nvEJAA1esfdf5cPtqJe0-31" value="" style="rounded=0;html=1;jettySize=auto;orthogonalLoop=1;fontSize=11;endArrow=block;endFill=0;endSize=8;strokeWidth=1;shadow=0;labelBackgroundColor=none;edgeStyle=orthogonalEdgeStyle;entryX=0.5;entryY=1;entryDx=0;entryDy=0;exitX=0;exitY=0.5;exitDx=0;exitDy=0;" edge="1" parent="nvEJAA1esfdf5cPtqJe0-1" source="nvEJAA1esfdf5cPtqJe0-11" target="nvEJAA1esfdf5cPtqJe0-8">
          <mxGeometry relative="1" as="geometry">
            <mxPoint x="-516" y="195" as="sourcePoint" />
            <mxPoint x="-516" y="235" as="targetPoint" />
            <Array as="points">
              <mxPoint x="560" y="958" />
              <mxPoint x="560" y="760" />
              <mxPoint x="560" y="760" />
            </Array>
          </mxGeometry>
        </mxCell>
        <mxCell id="nvEJAA1esfdf5cPtqJe0-32" value="No" style="edgeLabel;html=1;align=center;verticalAlign=middle;resizable=0;points=[];" vertex="1" connectable="0" parent="nvEJAA1esfdf5cPtqJe0-31">
          <mxGeometry x="-0.05" y="3" relative="1" as="geometry">
            <mxPoint x="53" y="142" as="offset" />
          </mxGeometry>
        </mxCell>
        <mxCell id="nvEJAA1esfdf5cPtqJe0-33" value="Run Windows Features Workflow" style="ellipse;whiteSpace=wrap;html=1;aspect=fixed;fillColor=#f5f5f5;fontColor=#333333;strokeColor=#666666;" vertex="1" parent="nvEJAA1esfdf5cPtqJe0-1">
          <mxGeometry x="165" y="590" width="80" height="80" as="geometry" />
        </mxCell>
        <mxCell id="nvEJAA1esfdf5cPtqJe0-34" value="" style="rounded=0;html=1;jettySize=auto;orthogonalLoop=1;fontSize=11;endArrow=block;endFill=0;endSize=8;strokeWidth=1;shadow=0;labelBackgroundColor=none;edgeStyle=orthogonalEdgeStyle;entryX=0.5;entryY=1;entryDx=0;entryDy=0;exitX=0;exitY=0.5;exitDx=0;exitDy=0;" edge="1" parent="nvEJAA1esfdf5cPtqJe0-1" source="nvEJAA1esfdf5cPtqJe0-2" target="nvEJAA1esfdf5cPtqJe0-8">
          <mxGeometry relative="1" as="geometry">
            <mxPoint x="-830" y="415" as="sourcePoint" />
            <mxPoint x="-380" y="540" as="targetPoint" />
          </mxGeometry>
        </mxCell>
        <mxCell id="nvEJAA1esfdf5cPtqJe0-35" value="No" style="edgeLabel;html=1;align=center;verticalAlign=middle;resizable=0;points=[];" vertex="1" connectable="0" parent="nvEJAA1esfdf5cPtqJe0-34">
          <mxGeometry x="-0.6857" y="-3" relative="1" as="geometry">
            <mxPoint x="-36" y="3" as="offset" />
          </mxGeometry>
        </mxCell>
        <mxCell id="nvEJAA1esfdf5cPtqJe0-36" value="Workflow Successful?" style="rhombus;whiteSpace=wrap;html=1;shadow=0;fontFamily=Helvetica;fontSize=12;align=center;strokeWidth=1;spacing=6;spacingTop=-4;fillColor=#dae8fc;strokeColor=#6c8ebf;" vertex="1" parent="nvEJAA1esfdf5cPtqJe0-1">
          <mxGeometry x="304" y="700" width="100" height="80" as="geometry" />
        </mxCell>
        <mxCell id="nvEJAA1esfdf5cPtqJe0-37" value="" style="rounded=0;html=1;jettySize=auto;orthogonalLoop=1;fontSize=11;endArrow=block;endFill=0;endSize=8;strokeWidth=1;shadow=0;labelBackgroundColor=none;edgeStyle=orthogonalEdgeStyle;exitX=0.5;exitY=0;exitDx=0;exitDy=0;entryX=0;entryY=0.5;entryDx=0;entryDy=0;" edge="1" parent="nvEJAA1esfdf5cPtqJe0-1" source="nvEJAA1esfdf5cPtqJe0-26" target="nvEJAA1esfdf5cPtqJe0-27">
          <mxGeometry relative="1" as="geometry">
            <mxPoint x="-600" y="800" as="sourcePoint" />
            <mxPoint x="160" y="750" as="targetPoint" />
            <Array as="points">
              <mxPoint x="80" y="800" />
              <mxPoint x="110" y="800" />
              <mxPoint x="110" y="740" />
            </Array>
          </mxGeometry>
        </mxCell>
        <mxCell id="nvEJAA1esfdf5cPtqJe0-38" value="Yes" style="edgeLabel;html=1;align=center;verticalAlign=middle;resizable=0;points=[];" vertex="1" connectable="0" parent="nvEJAA1esfdf5cPtqJe0-37">
          <mxGeometry x="-0.1048" y="3" relative="1" as="geometry">
            <mxPoint x="3" y="-15" as="offset" />
          </mxGeometry>
        </mxCell>
        <mxCell id="nvEJAA1esfdf5cPtqJe0-39" value="Workflow Successful?" style="rhombus;whiteSpace=wrap;html=1;shadow=0;fontFamily=Helvetica;fontSize=12;align=center;strokeWidth=1;spacing=6;spacingTop=-4;fillColor=#dae8fc;strokeColor=#6c8ebf;" vertex="1" parent="nvEJAA1esfdf5cPtqJe0-1">
          <mxGeometry x="304" y="837.5" width="100" height="80" as="geometry" />
        </mxCell>
        <mxCell id="nvEJAA1esfdf5cPtqJe0-40" value="" style="rounded=0;html=1;jettySize=auto;orthogonalLoop=1;fontSize=11;endArrow=block;endFill=0;endSize=8;strokeWidth=1;shadow=0;labelBackgroundColor=none;edgeStyle=orthogonalEdgeStyle;entryX=0;entryY=0.5;entryDx=0;entryDy=0;exitX=1;exitY=0.5;exitDx=0;exitDy=0;" edge="1" parent="nvEJAA1esfdf5cPtqJe0-1" source="nvEJAA1esfdf5cPtqJe0-25" target="nvEJAA1esfdf5cPtqJe0-39">
          <mxGeometry relative="1" as="geometry">
            <mxPoint x="250" y="870" as="sourcePoint" />
            <mxPoint x="-760" y="470" as="targetPoint" />
          </mxGeometry>
        </mxCell>
        <mxCell id="nvEJAA1esfdf5cPtqJe0-41" value="Workflow Successful?" style="rhombus;whiteSpace=wrap;html=1;shadow=0;fontFamily=Helvetica;fontSize=12;align=center;strokeWidth=1;spacing=6;spacingTop=-4;fillColor=#dae8fc;strokeColor=#6c8ebf;" vertex="1" parent="nvEJAA1esfdf5cPtqJe0-1">
          <mxGeometry x="304" y="590" width="100" height="80" as="geometry" />
        </mxCell>
        <mxCell id="nvEJAA1esfdf5cPtqJe0-42" value="" style="rounded=0;html=1;jettySize=auto;orthogonalLoop=1;fontSize=11;endArrow=block;endFill=0;endSize=8;strokeWidth=1;shadow=0;labelBackgroundColor=none;edgeStyle=orthogonalEdgeStyle;entryX=0;entryY=0.5;entryDx=0;entryDy=0;exitX=1;exitY=0.5;exitDx=0;exitDy=0;" edge="1" parent="nvEJAA1esfdf5cPtqJe0-1" source="nvEJAA1esfdf5cPtqJe0-27" target="nvEJAA1esfdf5cPtqJe0-36">
          <mxGeometry relative="1" as="geometry">
            <mxPoint x="-90" y="430" as="sourcePoint" />
            <mxPoint x="-90" y="470" as="targetPoint" />
          </mxGeometry>
        </mxCell>
        <mxCell id="nvEJAA1esfdf5cPtqJe0-43" value="" style="rounded=0;html=1;jettySize=auto;orthogonalLoop=1;fontSize=11;endArrow=block;endFill=0;endSize=8;strokeWidth=1;shadow=0;labelBackgroundColor=none;edgeStyle=orthogonalEdgeStyle;entryX=1;entryY=0.5;entryDx=0;entryDy=0;exitX=0;exitY=0.5;exitDx=0;exitDy=0;" edge="1" parent="nvEJAA1esfdf5cPtqJe0-1" source="nvEJAA1esfdf5cPtqJe0-56" target="nvEJAA1esfdf5cPtqJe0-61">
          <mxGeometry relative="1" as="geometry">
            <mxPoint x="-110" y="480" as="sourcePoint" />
            <mxPoint x="-380" y="540" as="targetPoint" />
          </mxGeometry>
        </mxCell>
        <mxCell id="nvEJAA1esfdf5cPtqJe0-44" value="No" style="edgeLabel;html=1;align=center;verticalAlign=middle;resizable=0;points=[];" vertex="1" connectable="0" parent="nvEJAA1esfdf5cPtqJe0-43">
          <mxGeometry x="-0.3333" y="3" relative="1" as="geometry">
            <mxPoint x="-10" y="-3" as="offset" />
          </mxGeometry>
        </mxCell>
        <mxCell id="nvEJAA1esfdf5cPtqJe0-45" value="" style="rounded=0;html=1;jettySize=auto;orthogonalLoop=1;fontSize=11;endArrow=block;endFill=0;endSize=8;strokeWidth=1;shadow=0;labelBackgroundColor=none;edgeStyle=orthogonalEdgeStyle;entryX=1;entryY=0.5;entryDx=0;entryDy=0;exitX=0.5;exitY=0;exitDx=0;exitDy=0;" edge="1" parent="nvEJAA1esfdf5cPtqJe0-1" source="nvEJAA1esfdf5cPtqJe0-39" target="nvEJAA1esfdf5cPtqJe0-26">
          <mxGeometry relative="1" as="geometry">
            <mxPoint x="-600" y="680" as="sourcePoint" />
            <mxPoint x="-855" y="820" as="targetPoint" />
            <Array as="points">
              <mxPoint x="354" y="818" />
              <mxPoint x="160" y="818" />
              <mxPoint x="160" y="878" />
            </Array>
          </mxGeometry>
        </mxCell>
        <mxCell id="nvEJAA1esfdf5cPtqJe0-46" value="Yes" style="edgeLabel;html=1;align=center;verticalAlign=middle;resizable=0;points=[];" vertex="1" connectable="0" parent="nvEJAA1esfdf5cPtqJe0-45">
          <mxGeometry x="-0.6095" y="1" relative="1" as="geometry">
            <mxPoint x="-84" as="offset" />
          </mxGeometry>
        </mxCell>
        <mxCell id="nvEJAA1esfdf5cPtqJe0-47" value="&lt;p class=&quot;MsoNormal&quot;&gt;Service Station Request Submitted (Change Request)&lt;/p&gt;" style="rounded=1;whiteSpace=wrap;html=1;fontSize=12;glass=0;strokeWidth=1;shadow=0;fillColor=#f8cecc;strokeColor=#b85450;" vertex="1" parent="nvEJAA1esfdf5cPtqJe0-1">
          <mxGeometry x="320" y="62.5" width="120" height="40" as="geometry" />
        </mxCell>
        <mxCell id="nvEJAA1esfdf5cPtqJe0-49" value="" style="rounded=0;html=1;jettySize=auto;orthogonalLoop=1;fontSize=11;endArrow=block;endFill=0;endSize=8;strokeWidth=1;shadow=0;labelBackgroundColor=none;edgeStyle=orthogonalEdgeStyle;exitX=1;exitY=0.5;exitDx=0;exitDy=0;entryX=0;entryY=0.5;entryDx=0;entryDy=0;" edge="1" parent="nvEJAA1esfdf5cPtqJe0-1" target="nvEJAA1esfdf5cPtqJe0-47">
          <mxGeometry relative="1" as="geometry">
            <mxPoint x="260" y="82.5" as="sourcePoint" />
            <mxPoint x="330" y="302.5" as="targetPoint" />
            <Array as="points">
              <mxPoint x="300" y="82.5" />
              <mxPoint x="300" y="82.5" />
            </Array>
          </mxGeometry>
        </mxCell>
        <mxCell id="nvEJAA1esfdf5cPtqJe0-50" value="&lt;p class=&quot;MsoNormal&quot;&gt;Service Station Request Approved by Manager&lt;/p&gt;" style="rounded=1;whiteSpace=wrap;html=1;fontSize=12;glass=0;strokeWidth=1;shadow=0;fillColor=#f8cecc;strokeColor=#b85450;" vertex="1" parent="nvEJAA1esfdf5cPtqJe0-1">
          <mxGeometry x="500" y="62.5" width="120" height="40" as="geometry" />
        </mxCell>
        <mxCell id="nvEJAA1esfdf5cPtqJe0-51" value="" style="rounded=0;html=1;jettySize=auto;orthogonalLoop=1;fontSize=11;endArrow=block;endFill=0;endSize=8;strokeWidth=1;shadow=0;labelBackgroundColor=none;edgeStyle=orthogonalEdgeStyle;entryX=0;entryY=0.5;entryDx=0;entryDy=0;exitX=1;exitY=0.5;exitDx=0;exitDy=0;" edge="1" parent="nvEJAA1esfdf5cPtqJe0-1" source="nvEJAA1esfdf5cPtqJe0-47" target="nvEJAA1esfdf5cPtqJe0-50">
          <mxGeometry relative="1" as="geometry">
            <mxPoint x="600" y="112.5" as="sourcePoint" />
            <mxPoint x="690" y="622.5" as="targetPoint" />
          </mxGeometry>
        </mxCell>
        <mxCell id="nvEJAA1esfdf5cPtqJe0-52" value="&lt;p class=&quot;MsoNormal&quot;&gt;Service Station Request Approved by Operations&amp;nbsp;&lt;/p&gt;" style="rounded=1;whiteSpace=wrap;html=1;fontSize=12;glass=0;strokeWidth=1;shadow=0;fillColor=#f8cecc;strokeColor=#b85450;" vertex="1" parent="nvEJAA1esfdf5cPtqJe0-1">
          <mxGeometry x="680" y="62.5" width="120" height="40" as="geometry" />
        </mxCell>
        <mxCell id="nvEJAA1esfdf5cPtqJe0-53" value="" style="rounded=0;html=1;jettySize=auto;orthogonalLoop=1;fontSize=11;endArrow=block;endFill=0;endSize=8;strokeWidth=1;shadow=0;labelBackgroundColor=none;edgeStyle=orthogonalEdgeStyle;entryX=0;entryY=0.5;entryDx=0;entryDy=0;exitX=1;exitY=0.5;exitDx=0;exitDy=0;" edge="1" parent="nvEJAA1esfdf5cPtqJe0-1" source="nvEJAA1esfdf5cPtqJe0-50" target="nvEJAA1esfdf5cPtqJe0-52">
          <mxGeometry relative="1" as="geometry">
            <mxPoint x="680" y="682.5" as="sourcePoint" />
            <mxPoint x="760" y="682.5" as="targetPoint" />
          </mxGeometry>
        </mxCell>
        <mxCell id="nvEJAA1esfdf5cPtqJe0-54" value="&lt;p class=&quot;MsoNormal&quot;&gt;API Call to Ansible&lt;/p&gt;" style="rounded=1;whiteSpace=wrap;html=1;fontSize=12;glass=0;strokeWidth=1;shadow=0;fillColor=#f8cecc;strokeColor=#b85450;" vertex="1" parent="nvEJAA1esfdf5cPtqJe0-1">
          <mxGeometry x="680" y="142.5" width="120" height="40" as="geometry" />
        </mxCell>
        <mxCell id="nvEJAA1esfdf5cPtqJe0-55" value="" style="rounded=0;html=1;jettySize=auto;orthogonalLoop=1;fontSize=11;endArrow=block;endFill=0;endSize=8;strokeWidth=1;shadow=0;labelBackgroundColor=none;edgeStyle=orthogonalEdgeStyle;entryX=0.5;entryY=0;entryDx=0;entryDy=0;exitX=0.5;exitY=1;exitDx=0;exitDy=0;" edge="1" parent="nvEJAA1esfdf5cPtqJe0-1" source="nvEJAA1esfdf5cPtqJe0-52" target="nvEJAA1esfdf5cPtqJe0-54">
          <mxGeometry relative="1" as="geometry">
            <mxPoint x="680" y="782.5" as="sourcePoint" />
            <mxPoint x="760" y="782.5" as="targetPoint" />
          </mxGeometry>
        </mxCell>
        <mxCell id="nvEJAA1esfdf5cPtqJe0-56" value="API Call Successful?" style="rhombus;whiteSpace=wrap;html=1;shadow=0;fontFamily=Helvetica;fontSize=12;align=center;strokeWidth=1;spacing=6;spacingTop=-4;fillColor=#dae8fc;strokeColor=#6c8ebf;" vertex="1" parent="nvEJAA1esfdf5cPtqJe0-1">
          <mxGeometry x="690" y="222.5" width="100" height="80" as="geometry" />
        </mxCell>
        <mxCell id="nvEJAA1esfdf5cPtqJe0-57" value="" style="rounded=0;html=1;jettySize=auto;orthogonalLoop=1;fontSize=11;endArrow=block;endFill=0;endSize=8;strokeWidth=1;shadow=0;labelBackgroundColor=none;edgeStyle=orthogonalEdgeStyle;entryX=0.5;entryY=0;entryDx=0;entryDy=0;exitX=0.5;exitY=1;exitDx=0;exitDy=0;" edge="1" parent="nvEJAA1esfdf5cPtqJe0-1" source="nvEJAA1esfdf5cPtqJe0-54" target="nvEJAA1esfdf5cPtqJe0-56">
          <mxGeometry relative="1" as="geometry">
            <mxPoint x="740" y="522.5" as="sourcePoint" />
            <mxPoint x="640" y="522.5" as="targetPoint" />
          </mxGeometry>
        </mxCell>
        <mxCell id="nvEJAA1esfdf5cPtqJe0-58" value="&lt;p class=&quot;MsoNormal&quot;&gt;Ansible Workflow Executed&lt;/p&gt;" style="rounded=1;whiteSpace=wrap;html=1;fontSize=12;glass=0;strokeWidth=1;shadow=0;fillColor=#f5f5f5;fontColor=#333333;strokeColor=#666666;" vertex="1" parent="nvEJAA1esfdf5cPtqJe0-1">
          <mxGeometry x="680" y="342.5" width="120" height="40" as="geometry" />
        </mxCell>
        <mxCell id="nvEJAA1esfdf5cPtqJe0-59" value="Yes" style="rounded=0;html=1;jettySize=auto;orthogonalLoop=1;fontSize=11;endArrow=block;endFill=0;endSize=8;strokeWidth=1;shadow=0;labelBackgroundColor=none;edgeStyle=orthogonalEdgeStyle;exitX=0.5;exitY=1;exitDx=0;exitDy=0;entryX=0.5;entryY=0;entryDx=0;entryDy=0;" edge="1" parent="nvEJAA1esfdf5cPtqJe0-1" source="nvEJAA1esfdf5cPtqJe0-56" target="nvEJAA1esfdf5cPtqJe0-58">
          <mxGeometry x="-0.125" relative="1" as="geometry">
            <mxPoint as="offset" />
          </mxGeometry>
        </mxCell>
        <mxCell id="nvEJAA1esfdf5cPtqJe0-60" value="" style="rounded=0;html=1;jettySize=auto;orthogonalLoop=1;fontSize=11;endArrow=block;endFill=0;endSize=8;strokeWidth=1;shadow=0;labelBackgroundColor=none;edgeStyle=orthogonalEdgeStyle;entryX=0.5;entryY=0;entryDx=0;entryDy=0;exitX=0.5;exitY=1;exitDx=0;exitDy=0;" edge="1" parent="nvEJAA1esfdf5cPtqJe0-1" source="nvEJAA1esfdf5cPtqJe0-58" target="nvEJAA1esfdf5cPtqJe0-10">
          <mxGeometry relative="1" as="geometry">
            <mxPoint x="510" y="112.5" as="sourcePoint" />
            <mxPoint x="840" y="442.5" as="targetPoint" />
          </mxGeometry>
        </mxCell>
        <mxCell id="nvEJAA1esfdf5cPtqJe0-61" value="&lt;p class=&quot;MsoNormal&quot;&gt;SNOW Task set to Open and user notified manual attention required&lt;/p&gt;" style="rounded=1;whiteSpace=wrap;html=1;fontSize=12;glass=0;strokeWidth=1;shadow=0;fillColor=#f8cecc;strokeColor=#b85450;" vertex="1" parent="nvEJAA1esfdf5cPtqJe0-1">
          <mxGeometry x="490" y="232.5" width="140" height="60" as="geometry" />
        </mxCell>
        <mxCell id="nvEJAA1esfdf5cPtqJe0-62" value="" style="rounded=0;html=1;jettySize=auto;orthogonalLoop=1;fontSize=11;endArrow=block;endFill=0;endSize=8;strokeWidth=1;shadow=0;labelBackgroundColor=none;edgeStyle=orthogonalEdgeStyle;entryX=0.5;entryY=1;entryDx=0;entryDy=0;exitX=0.5;exitY=0;exitDx=0;exitDy=0;" edge="1" parent="nvEJAA1esfdf5cPtqJe0-1" source="nvEJAA1esfdf5cPtqJe0-8" target="nvEJAA1esfdf5cPtqJe0-61">
          <mxGeometry relative="1" as="geometry">
            <mxPoint x="370" y="202.5" as="sourcePoint" />
            <mxPoint x="270" y="202.5" as="targetPoint" />
          </mxGeometry>
        </mxCell>
        <mxCell id="nvEJAA1esfdf5cPtqJe0-63" value="" style="rounded=0;html=1;jettySize=auto;orthogonalLoop=1;fontSize=11;endArrow=block;endFill=0;endSize=8;strokeWidth=1;shadow=0;labelBackgroundColor=none;edgeStyle=orthogonalEdgeStyle;entryX=0.5;entryY=0;entryDx=0;entryDy=0;exitX=0.5;exitY=1;exitDx=0;exitDy=0;" edge="1" parent="nvEJAA1esfdf5cPtqJe0-1" source="nvEJAA1esfdf5cPtqJe0-7" target="nvEJAA1esfdf5cPtqJe0-9">
          <mxGeometry relative="1" as="geometry">
            <mxPoint x="80" y="912.5" as="sourcePoint" />
            <mxPoint x="56" y="752.5" as="targetPoint" />
          </mxGeometry>
        </mxCell>
        <mxCell id="nvEJAA1esfdf5cPtqJe0-64" value="Yes" style="edgeLabel;html=1;align=center;verticalAlign=middle;resizable=0;points=[];" vertex="1" connectable="0" parent="nvEJAA1esfdf5cPtqJe0-63">
          <mxGeometry x="-0.05" y="-2" relative="1" as="geometry">
            <mxPoint x="2" y="-6" as="offset" />
          </mxGeometry>
        </mxCell>
        <mxCell id="nvEJAA1esfdf5cPtqJe0-65" value="" style="rounded=0;html=1;jettySize=auto;orthogonalLoop=1;fontSize=11;endArrow=block;endFill=0;endSize=8;strokeWidth=1;shadow=0;labelBackgroundColor=none;edgeStyle=orthogonalEdgeStyle;exitX=0;exitY=0.5;exitDx=0;exitDy=0;entryX=0;entryY=0.5;entryDx=0;entryDy=0;" edge="1" parent="nvEJAA1esfdf5cPtqJe0-1" source="nvEJAA1esfdf5cPtqJe0-7" target="nvEJAA1esfdf5cPtqJe0-107">
          <mxGeometry relative="1" as="geometry">
            <mxPoint x="-980" y="1140" as="sourcePoint" />
            <mxPoint x="540" y="640" as="targetPoint" />
            <Array as="points">
              <mxPoint x="630" y="800" />
              <mxPoint x="630" y="670" />
            </Array>
          </mxGeometry>
        </mxCell>
        <mxCell id="nvEJAA1esfdf5cPtqJe0-66" value="No" style="edgeLabel;html=1;align=center;verticalAlign=middle;resizable=0;points=[];" vertex="1" connectable="0" parent="nvEJAA1esfdf5cPtqJe0-65">
          <mxGeometry x="-0.4921" y="-2" relative="1" as="geometry">
            <mxPoint x="-2" y="-69" as="offset" />
          </mxGeometry>
        </mxCell>
        <mxCell id="nvEJAA1esfdf5cPtqJe0-67" value="" style="rounded=0;html=1;jettySize=auto;orthogonalLoop=1;fontSize=11;endArrow=block;endFill=0;endSize=8;strokeWidth=1;shadow=0;labelBackgroundColor=none;edgeStyle=orthogonalEdgeStyle;entryX=0.5;entryY=1;entryDx=0;entryDy=0;exitX=0.5;exitY=0;exitDx=0;exitDy=0;" edge="1" parent="nvEJAA1esfdf5cPtqJe0-1" source="nvEJAA1esfdf5cPtqJe0-16" target="nvEJAA1esfdf5cPtqJe0-8">
          <mxGeometry relative="1" as="geometry">
            <mxPoint x="-346" y="1150" as="sourcePoint" />
            <mxPoint x="-370" y="990" as="targetPoint" />
          </mxGeometry>
        </mxCell>
        <mxCell id="nvEJAA1esfdf5cPtqJe0-111" value="No" style="edgeLabel;html=1;align=center;verticalAlign=middle;resizable=0;points=[];" vertex="1" connectable="0" parent="nvEJAA1esfdf5cPtqJe0-67">
          <mxGeometry x="-0.8049" y="-2" relative="1" as="geometry">
            <mxPoint as="offset" />
          </mxGeometry>
        </mxCell>
        <mxCell id="nvEJAA1esfdf5cPtqJe0-68" value="" style="rounded=0;html=1;jettySize=auto;orthogonalLoop=1;fontSize=11;endArrow=block;endFill=0;endSize=8;strokeWidth=1;shadow=0;labelBackgroundColor=none;edgeStyle=orthogonalEdgeStyle;entryX=0.5;entryY=1;entryDx=0;entryDy=0;exitX=0.5;exitY=0;exitDx=0;exitDy=0;" edge="1" parent="nvEJAA1esfdf5cPtqJe0-1" source="nvEJAA1esfdf5cPtqJe0-20" target="nvEJAA1esfdf5cPtqJe0-8">
          <mxGeometry relative="1" as="geometry">
            <mxPoint x="-1010" y="1330" as="sourcePoint" />
            <mxPoint x="-935" y="1330" as="targetPoint" />
            <Array as="points">
              <mxPoint x="230" y="960" />
              <mxPoint x="560" y="960" />
            </Array>
          </mxGeometry>
        </mxCell>
        <mxCell id="nvEJAA1esfdf5cPtqJe0-69" value="No" style="edgeLabel;html=1;align=center;verticalAlign=middle;resizable=0;points=[];" vertex="1" connectable="0" parent="nvEJAA1esfdf5cPtqJe0-68">
          <mxGeometry x="-0.1133" y="-4" relative="1" as="geometry">
            <mxPoint x="-144" y="1" as="offset" />
          </mxGeometry>
        </mxCell>
        <mxCell id="nvEJAA1esfdf5cPtqJe0-70" value="END" style="ellipse;whiteSpace=wrap;html=1;fillColor=#f5f5f5;fontColor=#333333;strokeColor=#666666;" vertex="1" parent="nvEJAA1esfdf5cPtqJe0-1">
          <mxGeometry x="294" y="222.5" width="120" height="80" as="geometry" />
        </mxCell>
        <mxCell id="nvEJAA1esfdf5cPtqJe0-71" value="" style="rounded=0;html=1;jettySize=auto;orthogonalLoop=1;fontSize=11;endArrow=block;endFill=0;endSize=8;strokeWidth=1;shadow=0;labelBackgroundColor=none;edgeStyle=orthogonalEdgeStyle;entryX=1;entryY=0.5;entryDx=0;entryDy=0;exitX=0;exitY=0.5;exitDx=0;exitDy=0;" edge="1" parent="nvEJAA1esfdf5cPtqJe0-1" source="nvEJAA1esfdf5cPtqJe0-61" target="nvEJAA1esfdf5cPtqJe0-70">
          <mxGeometry relative="1" as="geometry">
            <mxPoint x="-540" y="640" as="sourcePoint" />
            <mxPoint x="-1000" y="800" as="targetPoint" />
          </mxGeometry>
        </mxCell>
        <mxCell id="nvEJAA1esfdf5cPtqJe0-72" value="" style="rounded=0;html=1;jettySize=auto;orthogonalLoop=1;fontSize=11;endArrow=block;endFill=0;endSize=8;strokeWidth=1;shadow=0;labelBackgroundColor=none;edgeStyle=orthogonalEdgeStyle;entryX=0;entryY=0.5;entryDx=0;entryDy=0;exitX=0;exitY=0.5;exitDx=0;exitDy=0;" edge="1" parent="nvEJAA1esfdf5cPtqJe0-1" source="nvEJAA1esfdf5cPtqJe0-24" target="nvEJAA1esfdf5cPtqJe0-26">
          <mxGeometry relative="1" as="geometry">
            <mxPoint x="-360" y="910" as="sourcePoint" />
            <mxPoint x="-600" y="660" as="targetPoint" />
          </mxGeometry>
        </mxCell>
        <mxCell id="nvEJAA1esfdf5cPtqJe0-73" value="No" style="edgeLabel;html=1;align=center;verticalAlign=middle;resizable=0;points=[];" vertex="1" connectable="0" parent="nvEJAA1esfdf5cPtqJe0-72">
          <mxGeometry x="0.0736" relative="1" as="geometry">
            <mxPoint as="offset" />
          </mxGeometry>
        </mxCell>
        <mxCell id="nvEJAA1esfdf5cPtqJe0-74" value="" style="rounded=0;html=1;jettySize=auto;orthogonalLoop=1;fontSize=11;endArrow=block;endFill=0;endSize=8;strokeWidth=1;shadow=0;labelBackgroundColor=none;edgeStyle=orthogonalEdgeStyle;entryX=1;entryY=0.5;entryDx=0;entryDy=0;exitX=0;exitY=0.5;exitDx=0;exitDy=0;" edge="1" parent="nvEJAA1esfdf5cPtqJe0-1" source="nvEJAA1esfdf5cPtqJe0-20" target="nvEJAA1esfdf5cPtqJe0-24">
          <mxGeometry relative="1" as="geometry">
            <mxPoint x="-1020" y="1240" as="sourcePoint" />
            <mxPoint x="-945" y="1240" as="targetPoint" />
          </mxGeometry>
        </mxCell>
        <mxCell id="nvEJAA1esfdf5cPtqJe0-75" value="Yes" style="edgeLabel;html=1;align=center;verticalAlign=middle;resizable=0;points=[];" vertex="1" connectable="0" parent="nvEJAA1esfdf5cPtqJe0-74">
          <mxGeometry x="-0.08" relative="1" as="geometry">
            <mxPoint as="offset" />
          </mxGeometry>
        </mxCell>
        <mxCell id="nvEJAA1esfdf5cPtqJe0-76" value="" style="rounded=0;html=1;jettySize=auto;orthogonalLoop=1;fontSize=11;endArrow=block;endFill=0;endSize=8;strokeWidth=1;shadow=0;labelBackgroundColor=none;edgeStyle=orthogonalEdgeStyle;exitX=1;exitY=0.5;exitDx=0;exitDy=0;entryX=0.5;entryY=1;entryDx=0;entryDy=0;" edge="1" parent="nvEJAA1esfdf5cPtqJe0-1" source="nvEJAA1esfdf5cPtqJe0-36" target="nvEJAA1esfdf5cPtqJe0-8">
          <mxGeometry relative="1" as="geometry">
            <mxPoint x="440" y="820" as="sourcePoint" />
            <mxPoint x="310" y="535" as="targetPoint" />
            <Array as="points">
              <mxPoint x="560" y="740" />
            </Array>
          </mxGeometry>
        </mxCell>
        <mxCell id="nvEJAA1esfdf5cPtqJe0-77" value="No" style="edgeLabel;html=1;align=center;verticalAlign=middle;resizable=0;points=[];" vertex="1" connectable="0" parent="nvEJAA1esfdf5cPtqJe0-76">
          <mxGeometry x="-0.4921" y="-2" relative="1" as="geometry">
            <mxPoint x="-42" y="-2" as="offset" />
          </mxGeometry>
        </mxCell>
        <mxCell id="nvEJAA1esfdf5cPtqJe0-78" value="" style="rounded=0;html=1;jettySize=auto;orthogonalLoop=1;fontSize=11;endArrow=block;endFill=0;endSize=8;strokeWidth=1;shadow=0;labelBackgroundColor=none;edgeStyle=orthogonalEdgeStyle;exitX=0.5;exitY=0;exitDx=0;exitDy=0;entryX=0;entryY=0.5;entryDx=0;entryDy=0;" edge="1" parent="nvEJAA1esfdf5cPtqJe0-1" source="nvEJAA1esfdf5cPtqJe0-26" target="nvEJAA1esfdf5cPtqJe0-30">
          <mxGeometry relative="1" as="geometry">
            <mxPoint x="-120" y="460" as="sourcePoint" />
            <mxPoint x="-250" y="175" as="targetPoint" />
            <Array as="points">
              <mxPoint x="80" y="800" />
              <mxPoint x="10" y="800" />
              <mxPoint x="10" y="630" />
            </Array>
          </mxGeometry>
        </mxCell>
        <mxCell id="nvEJAA1esfdf5cPtqJe0-79" value="No" style="edgeLabel;html=1;align=center;verticalAlign=middle;resizable=0;points=[];" vertex="1" connectable="0" parent="nvEJAA1esfdf5cPtqJe0-78">
          <mxGeometry x="-0.4921" y="-2" relative="1" as="geometry">
            <mxPoint x="-11" as="offset" />
          </mxGeometry>
        </mxCell>
        <mxCell id="nvEJAA1esfdf5cPtqJe0-80" value="" style="rounded=0;html=1;jettySize=auto;orthogonalLoop=1;fontSize=11;endArrow=block;endFill=0;endSize=8;strokeWidth=1;shadow=0;labelBackgroundColor=none;edgeStyle=orthogonalEdgeStyle;exitX=1;exitY=0.5;exitDx=0;exitDy=0;entryX=0;entryY=0.5;entryDx=0;entryDy=0;" edge="1" parent="nvEJAA1esfdf5cPtqJe0-1" source="nvEJAA1esfdf5cPtqJe0-30" target="nvEJAA1esfdf5cPtqJe0-33">
          <mxGeometry relative="1" as="geometry">
            <mxPoint x="-270" y="760" as="sourcePoint" />
            <mxPoint x="-400" y="475" as="targetPoint" />
            <Array as="points">
              <mxPoint x="140" y="630" />
              <mxPoint x="140" y="630" />
            </Array>
          </mxGeometry>
        </mxCell>
        <mxCell id="nvEJAA1esfdf5cPtqJe0-81" value="" style="rounded=0;html=1;jettySize=auto;orthogonalLoop=1;fontSize=11;endArrow=block;endFill=0;endSize=8;strokeWidth=1;shadow=0;labelBackgroundColor=none;edgeStyle=orthogonalEdgeStyle;exitX=1;exitY=0.5;exitDx=0;exitDy=0;entryX=0.5;entryY=1;entryDx=0;entryDy=0;" edge="1" parent="nvEJAA1esfdf5cPtqJe0-1" source="nvEJAA1esfdf5cPtqJe0-41" target="nvEJAA1esfdf5cPtqJe0-8">
          <mxGeometry relative="1" as="geometry">
            <mxPoint x="-310" y="590" as="sourcePoint" />
            <mxPoint x="560" y="470" as="targetPoint" />
            <Array as="points">
              <mxPoint x="560" y="630" />
            </Array>
          </mxGeometry>
        </mxCell>
        <mxCell id="nvEJAA1esfdf5cPtqJe0-82" value="No" style="edgeLabel;html=1;align=center;verticalAlign=middle;resizable=0;points=[];" vertex="1" connectable="0" parent="nvEJAA1esfdf5cPtqJe0-81">
          <mxGeometry x="-0.4921" y="-2" relative="1" as="geometry">
            <mxPoint x="-14" y="-2" as="offset" />
          </mxGeometry>
        </mxCell>
        <mxCell id="nvEJAA1esfdf5cPtqJe0-83" value="" style="rounded=0;html=1;jettySize=auto;orthogonalLoop=1;fontSize=11;endArrow=block;endFill=0;endSize=8;strokeWidth=1;shadow=0;labelBackgroundColor=none;edgeStyle=orthogonalEdgeStyle;exitX=1;exitY=0.5;exitDx=0;exitDy=0;entryX=0;entryY=0.5;entryDx=0;entryDy=0;" edge="1" parent="nvEJAA1esfdf5cPtqJe0-1" source="nvEJAA1esfdf5cPtqJe0-33" target="nvEJAA1esfdf5cPtqJe0-41">
          <mxGeometry relative="1" as="geometry">
            <mxPoint x="-290" y="880" as="sourcePoint" />
            <mxPoint x="-420" y="595" as="targetPoint" />
            <Array as="points">
              <mxPoint x="260" y="630" />
              <mxPoint x="260" y="630" />
            </Array>
          </mxGeometry>
        </mxCell>
        <mxCell id="nvEJAA1esfdf5cPtqJe0-84" value="Run Post install SNOW task Workflow" style="ellipse;whiteSpace=wrap;html=1;aspect=fixed;fillColor=#f5f5f5;fontColor=#333333;strokeColor=#666666;" vertex="1" parent="nvEJAA1esfdf5cPtqJe0-1">
          <mxGeometry x="40" y="412.5" width="80" height="80" as="geometry" />
        </mxCell>
        <mxCell id="nvEJAA1esfdf5cPtqJe0-85" value="" style="rounded=0;html=1;jettySize=auto;orthogonalLoop=1;fontSize=11;endArrow=block;endFill=0;endSize=8;strokeWidth=1;shadow=0;labelBackgroundColor=none;edgeStyle=orthogonalEdgeStyle;entryX=0.5;entryY=1;entryDx=0;entryDy=0;exitX=0.5;exitY=0;exitDx=0;exitDy=0;" edge="1" parent="nvEJAA1esfdf5cPtqJe0-1" source="nvEJAA1esfdf5cPtqJe0-41" target="nvEJAA1esfdf5cPtqJe0-84">
          <mxGeometry relative="1" as="geometry">
            <mxPoint x="-950" y="930" as="sourcePoint" />
            <mxPoint x="-600" y="740" as="targetPoint" />
          </mxGeometry>
        </mxCell>
        <mxCell id="nvEJAA1esfdf5cPtqJe0-86" value="Yes" style="edgeLabel;html=1;align=center;verticalAlign=middle;resizable=0;points=[];" vertex="1" connectable="0" parent="nvEJAA1esfdf5cPtqJe0-85">
          <mxGeometry x="-0.0105" y="2" relative="1" as="geometry">
            <mxPoint as="offset" />
          </mxGeometry>
        </mxCell>
        <mxCell id="nvEJAA1esfdf5cPtqJe0-87" value="Workflow Successful?" style="rhombus;whiteSpace=wrap;html=1;shadow=0;fontFamily=Helvetica;fontSize=12;align=center;strokeWidth=1;spacing=6;spacingTop=-4;fillColor=#dae8fc;strokeColor=#6c8ebf;" vertex="1" parent="nvEJAA1esfdf5cPtqJe0-1">
          <mxGeometry x="204" y="412.5" width="100" height="80" as="geometry" />
        </mxCell>
        <mxCell id="nvEJAA1esfdf5cPtqJe0-88" value="&lt;p class=&quot;MsoNormal&quot;&gt;Play run to send API to SNOW as successful&lt;/p&gt;" style="rounded=1;whiteSpace=wrap;html=1;fontSize=12;glass=0;strokeWidth=1;shadow=0;fillColor=#d5e8d4;strokeColor=#82b366;" vertex="1" parent="nvEJAA1esfdf5cPtqJe0-1">
          <mxGeometry x="20" y="312.5" width="120" height="40" as="geometry" />
        </mxCell>
        <mxCell id="nvEJAA1esfdf5cPtqJe0-89" value="&lt;p class=&quot;MsoNormal&quot;&gt;SNOW Task Closed User notified Complete&lt;/p&gt;" style="rounded=1;whiteSpace=wrap;html=1;fontSize=12;glass=0;strokeWidth=1;shadow=0;fillColor=#f8cecc;strokeColor=#b85450;" vertex="1" parent="nvEJAA1esfdf5cPtqJe0-1">
          <mxGeometry x="20" y="232.5" width="120" height="40" as="geometry" />
        </mxCell>
        <mxCell id="nvEJAA1esfdf5cPtqJe0-90" value="" style="rounded=0;html=1;jettySize=auto;orthogonalLoop=1;fontSize=11;endArrow=block;endFill=0;endSize=8;strokeWidth=1;shadow=0;labelBackgroundColor=none;edgeStyle=orthogonalEdgeStyle;exitX=0.5;exitY=0;exitDx=0;exitDy=0;entryX=0.5;entryY=1;entryDx=0;entryDy=0;" edge="1" parent="nvEJAA1esfdf5cPtqJe0-1" source="nvEJAA1esfdf5cPtqJe0-87" target="nvEJAA1esfdf5cPtqJe0-88">
          <mxGeometry relative="1" as="geometry">
            <mxPoint x="-510" y="810" as="sourcePoint" />
            <mxPoint x="-640" y="525" as="targetPoint" />
            <Array as="points">
              <mxPoint x="254" y="390" />
              <mxPoint x="80" y="390" />
            </Array>
          </mxGeometry>
        </mxCell>
        <mxCell id="nvEJAA1esfdf5cPtqJe0-91" value="Yes" style="edgeLabel;html=1;align=center;verticalAlign=middle;resizable=0;points=[];" vertex="1" connectable="0" parent="nvEJAA1esfdf5cPtqJe0-90">
          <mxGeometry x="-0.4921" y="-2" relative="1" as="geometry">
            <mxPoint x="343" y="-28" as="offset" />
          </mxGeometry>
        </mxCell>
        <mxCell id="nvEJAA1esfdf5cPtqJe0-93" value="Yes" style="edgeLabel;html=1;align=center;verticalAlign=middle;resizable=0;points=[];" vertex="1" connectable="0" parent="nvEJAA1esfdf5cPtqJe0-90">
          <mxGeometry x="0.0299" y="-3" relative="1" as="geometry">
            <mxPoint as="offset" />
          </mxGeometry>
        </mxCell>
        <mxCell id="nvEJAA1esfdf5cPtqJe0-94" value="" style="rounded=0;html=1;jettySize=auto;orthogonalLoop=1;fontSize=11;endArrow=block;endFill=0;endSize=8;strokeWidth=1;shadow=0;labelBackgroundColor=none;edgeStyle=orthogonalEdgeStyle;exitX=1;exitY=0.5;exitDx=0;exitDy=0;entryX=0;entryY=0.5;entryDx=0;entryDy=0;" edge="1" parent="nvEJAA1esfdf5cPtqJe0-1" source="nvEJAA1esfdf5cPtqJe0-87" target="nvEJAA1esfdf5cPtqJe0-8">
          <mxGeometry relative="1" as="geometry">
            <mxPoint x="-340" y="590" as="sourcePoint" />
            <mxPoint x="-470" y="305" as="targetPoint" />
            <Array as="points">
              <mxPoint x="304" y="450" />
              <mxPoint x="390" y="450" />
              <mxPoint x="390" y="453" />
            </Array>
          </mxGeometry>
        </mxCell>
        <mxCell id="nvEJAA1esfdf5cPtqJe0-95" value="No" style="edgeLabel;html=1;align=center;verticalAlign=middle;resizable=0;points=[];" vertex="1" connectable="0" parent="nvEJAA1esfdf5cPtqJe0-94">
          <mxGeometry x="-0.4921" y="-2" relative="1" as="geometry">
            <mxPoint x="35" y="2" as="offset" />
          </mxGeometry>
        </mxCell>
        <mxCell id="nvEJAA1esfdf5cPtqJe0-96" value="" style="rounded=0;html=1;jettySize=auto;orthogonalLoop=1;fontSize=11;endArrow=block;endFill=0;endSize=8;strokeWidth=1;shadow=0;labelBackgroundColor=none;edgeStyle=orthogonalEdgeStyle;exitX=1;exitY=0.5;exitDx=0;exitDy=0;entryX=0;entryY=0.5;entryDx=0;entryDy=0;" edge="1" parent="nvEJAA1esfdf5cPtqJe0-1" source="nvEJAA1esfdf5cPtqJe0-84" target="nvEJAA1esfdf5cPtqJe0-87">
          <mxGeometry relative="1" as="geometry">
            <mxPoint x="-500" y="690" as="sourcePoint" />
            <mxPoint x="-630" y="405" as="targetPoint" />
            <Array as="points">
              <mxPoint x="130" y="453" />
              <mxPoint x="130" y="453" />
            </Array>
          </mxGeometry>
        </mxCell>
        <mxCell id="nvEJAA1esfdf5cPtqJe0-97" value="" style="rounded=0;html=1;jettySize=auto;orthogonalLoop=1;fontSize=11;endArrow=block;endFill=0;endSize=8;strokeWidth=1;shadow=0;labelBackgroundColor=none;edgeStyle=orthogonalEdgeStyle;entryX=0.5;entryY=1;entryDx=0;entryDy=0;exitX=0.5;exitY=0;exitDx=0;exitDy=0;" edge="1" parent="nvEJAA1esfdf5cPtqJe0-1" source="nvEJAA1esfdf5cPtqJe0-88" target="nvEJAA1esfdf5cPtqJe0-89">
          <mxGeometry relative="1" as="geometry">
            <mxPoint x="-350" y="500" as="sourcePoint" />
            <mxPoint x="-230" y="222.5" as="targetPoint" />
            <Array as="points">
              <mxPoint x="80" y="290" />
              <mxPoint x="80" y="290" />
            </Array>
          </mxGeometry>
        </mxCell>
        <mxCell id="nvEJAA1esfdf5cPtqJe0-98" value="" style="rounded=0;html=1;jettySize=auto;orthogonalLoop=1;fontSize=11;endArrow=block;endFill=0;endSize=8;strokeWidth=1;shadow=0;labelBackgroundColor=none;edgeStyle=orthogonalEdgeStyle;exitX=0.5;exitY=0;exitDx=0;exitDy=0;entryX=0.5;entryY=0;entryDx=0;entryDy=0;" edge="1" parent="nvEJAA1esfdf5cPtqJe0-1" source="nvEJAA1esfdf5cPtqJe0-89" target="nvEJAA1esfdf5cPtqJe0-70">
          <mxGeometry relative="1" as="geometry">
            <mxPoint x="-560" y="750" as="sourcePoint" />
            <mxPoint x="-690" y="465" as="targetPoint" />
            <Array as="points">
              <mxPoint x="80" y="170" />
              <mxPoint x="354" y="170" />
            </Array>
          </mxGeometry>
        </mxCell>
        <mxCell id="nvEJAA1esfdf5cPtqJe0-99" value="" style="edgeStyle=orthogonalEdgeStyle;rounded=0;orthogonalLoop=1;jettySize=auto;html=1;exitX=1;exitY=0.5;exitDx=0;exitDy=0;" edge="1" parent="nvEJAA1esfdf5cPtqJe0-1" source="nvEJAA1esfdf5cPtqJe0-0" target="nvEJAA1esfdf5cPtqJe0-47">
          <mxGeometry relative="1" as="geometry" />
        </mxCell>
        <mxCell id="nvEJAA1esfdf5cPtqJe0-0" value="Citrix Catalog Update Workflow" style="ellipse;whiteSpace=wrap;html=1;fillColor=#f5f5f5;fontColor=#333333;strokeColor=#666666;" vertex="1" parent="nvEJAA1esfdf5cPtqJe0-1">
          <mxGeometry x="140" y="42.5" width="120" height="80" as="geometry" />
        </mxCell>
        <mxCell id="nvEJAA1esfdf5cPtqJe0-106" value="&lt;br&gt;" style="rounded=0;html=1;jettySize=auto;orthogonalLoop=1;fontSize=11;endArrow=block;endFill=0;endSize=8;strokeWidth=1;shadow=0;labelBackgroundColor=none;edgeStyle=orthogonalEdgeStyle;exitX=0.5;exitY=1;exitDx=0;exitDy=0;entryX=0.5;entryY=0;entryDx=0;entryDy=0;" edge="1" parent="nvEJAA1esfdf5cPtqJe0-1" source="nvEJAA1esfdf5cPtqJe0-107" target="nvEJAA1esfdf5cPtqJe0-7">
          <mxGeometry x="-0.1431" relative="1" as="geometry">
            <mxPoint as="offset" />
            <mxPoint x="740" y="710" as="sourcePoint" />
            <mxPoint x="610" y="670" as="targetPoint" />
          </mxGeometry>
        </mxCell>
        <mxCell id="nvEJAA1esfdf5cPtqJe0-107" value="&lt;p class=&quot;MsoNormal&quot;&gt;Check if VM is powered off in VCenter&lt;/p&gt;" style="rounded=1;whiteSpace=wrap;html=1;fontSize=12;glass=0;strokeWidth=1;shadow=0;fillColor=#d5e8d4;strokeColor=#82b366;" vertex="1" parent="nvEJAA1esfdf5cPtqJe0-1">
          <mxGeometry x="680" y="650" width="120" height="40" as="geometry" />
        </mxCell>
        <mxCell id="nvEJAA1esfdf5cPtqJe0-109" value="" style="rounded=0;html=1;jettySize=auto;orthogonalLoop=1;fontSize=11;endArrow=block;endFill=0;endSize=8;strokeWidth=1;shadow=0;labelBackgroundColor=none;edgeStyle=orthogonalEdgeStyle;entryX=0.5;entryY=0;entryDx=0;entryDy=0;exitX=0.5;exitY=1;exitDx=0;exitDy=0;" edge="1" parent="nvEJAA1esfdf5cPtqJe0-1" source="nvEJAA1esfdf5cPtqJe0-2" target="nvEJAA1esfdf5cPtqJe0-107">
          <mxGeometry relative="1" as="geometry">
            <mxPoint x="700" y="630" as="sourcePoint" />
            <mxPoint x="700" y="670" as="targetPoint" />
          </mxGeometry>
        </mxCell>
        <mxCell id="nvEJAA1esfdf5cPtqJe0-110" value="Yes" style="edgeLabel;html=1;align=center;verticalAlign=middle;resizable=0;points=[];" vertex="1" connectable="0" parent="nvEJAA1esfdf5cPtqJe0-109">
          <mxGeometry x="-0.05" y="-2" relative="1" as="geometry">
            <mxPoint x="2" y="-6" as="offset" />
          </mxGeometry>
        </mxCell>
      </root>
    </mxGraphModel>
  </diagram>
</mxfile>
